HIERARCHY
ROOT Hips
{
	OFFSET -0.179506 -22.333345 2.821913
	CHANNELS 6 Xposition Yposition Zposition Zrotation Yrotation Xrotation 
	JOINT LeftUpLeg
	{
		OFFSET 6.951974 -9.140623 -0.681533
		CHANNELS 3 Zrotation Yrotation Xrotation
		JOINT LeftLeg
		{
			OFFSET 3.427654 -37.519855 -0.449580
			CHANNELS 3 Zrotation Yrotation Xrotation
			JOINT LeftFoot
			{
				OFFSET -1.359570 -39.796059 -4.369333
				CHANNELS 3 Zrotation Yrotation Xrotation
				JOINT LeftToe
				{
					OFFSET 2.635814 -5.579078 11.928840
					CHANNELS 3 Zrotation Yrotation Xrotation
					End Site
					{
						OFFSET 0.000000 0.000000 0.000000
					}
				}
			}
		}
	}
	JOINT RightUpLeg
	{
		OFFSET -6.767048 -9.052170 -0.431982
		CHANNELS 3 Zrotation Yrotation Xrotation
		JOINT RightLeg
		{
			OFFSET -3.829005 -38.256897 -0.885003
			CHANNELS 3 Zrotation Yrotation Xrotation
			JOINT RightFoot
			{
				OFFSET 1.577377 -39.841461 -4.231180
				CHANNELS 3 Zrotation Yrotation Xrotation
				JOINT RightToe
				{
					OFFSET -2.537174 -4.814398 12.334795
					CHANNELS 3 Zrotation Yrotation Xrotation
					End Site
					{
						OFFSET 0.000000 0.000000 0.000000
					}
				}
			}
		}
	}
	JOINT Spine
	{
		OFFSET -0.253288 10.896323 -2.669631
		CHANNELS 3 Zrotation Yrotation Xrotation
		JOINT Spine1
		{
			OFFSET 0.548704 13.518043 0.109247
			CHANNELS 3 Zrotation Yrotation Xrotation
			JOINT Spine2
			{
				OFFSET 0.145701 5.292222 2.542457
				CHANNELS 3 Zrotation Yrotation Xrotation
				JOINT Neck
				{
					OFFSET -0.277840 21.387037 -4.285703
					CHANNELS 3 Zrotation Yrotation Xrotation
					JOINT Head
					{
						OFFSET 0.515184 6.496960 5.134897
						CHANNELS 3 Zrotation Yrotation Xrotation
						End Site
						{
							OFFSET 0.000000 0.000000 0.000000
						}
					}
				}
				JOINT LeftShoulder
				{
					OFFSET 7.884473 12.174932 -3.408961
					CHANNELS 3 Zrotation Yrotation Xrotation
					JOINT LeftArm
					{
						OFFSET 9.097692 3.046888 -0.886815
						CHANNELS 3 Zrotation Yrotation Xrotation
						JOINT LeftForeArm
						{
							OFFSET 25.961220 -1.277207 -2.745643
							CHANNELS 3 Zrotation Yrotation Xrotation
							JOINT LeftHand
							{
								OFFSET 24.923361 0.898606 -0.117091
								CHANNELS 3 Zrotation Yrotation Xrotation
								End Site
								{
									OFFSET 0.000000 0.000000 0.000000
								}
							}
						}
					}
				}
				JOINT RightShoulder
				{
					OFFSET -8.175920 11.883285 -3.861528
					CHANNELS 3 Zrotation Yrotation Xrotation
					JOINT RightArm
					{
						OFFSET -9.601238 3.255117 -0.914307
						CHANNELS 3 Zrotation Yrotation Xrotation
						JOINT RightForeArm
						{
							OFFSET -25.374195 -1.332924 -2.140099
							CHANNELS 3 Zrotation Yrotation Xrotation
							JOINT RightHand
							{
								OFFSET -25.529810 0.777228 -0.555919
								CHANNELS 3 Zrotation Yrotation Xrotation
								End Site
								{
									OFFSET 0.000000 0.000000 0.000000
								}
							}
						}
					}
				}
			}
		}
	}
}
MOTION
Frames: 9
Frame Time: 0.033333
-54.483913 140.049683 91.570404 -140.679862 5.825300 91.110252 9.468308 6.521722 -1.045772 -2.713891 7.406485 12.983796 3.239059 13.073529 -25.463157 nan nan nan -14.032925 -10.823782 -19.169095 2.641450 -15.238086 11.135521 8.117165 -4.612011 3.403511 nan nan nan -4.954070 -1.227027 1.634218 6.059454 -6.281252 9.685498 -0.771535 -1.550076 -3.917374 1.348925 -11.498039 7.702485 3.371983 -11.747141 11.162697 -18.566488 -7.185894 4.709861 -61.616313 -35.811398 27.476319 164.240933 -66.023300 -124.492412 6.949342 -18.064214 2.754486 23.732542 2.389991 -2.167400 50.598857 16.106947 1.407524 -137.843119 49.208080 -111.317940 -5.705380 11.386125 -3.589460 
-54.497456 140.025223 91.494789 -140.711836 5.872033 91.036863 9.542011 6.577048 -1.018326 -2.686735 7.363549 12.944952 3.164252 13.131468 -25.234727 nan nan nan -14.024933 -10.812763 -19.259855 2.651832 -15.062608 11.464275 8.044984 -4.567729 2.979048 nan nan nan -4.927993 -1.210485 1.635142 6.128345 -6.308978 9.869130 -0.740545 -1.568646 -3.939865 1.593346 -12.372182 7.988367 3.595229 -12.380614 11.442529 -18.539690 -7.251237 4.740025 -61.489390 -36.195633 27.303306 163.297144 -66.114822 -123.656296 7.379344 -17.656649 3.184694 23.714220 2.554553 -2.103323 50.185364 16.324803 1.232663 -137.507687 49.310546 -111.152747 -6.121645 11.299418 -3.415133 
-54.500107 140.021088 91.447777 -140.724745 5.922014 91.014604 9.645916 6.648209 -1.033251 -2.711757 7.359153 12.954476 3.097480 13.138056 -25.132272 nan nan nan -13.958915 -10.771899 -19.399321 2.597160 -14.980972 11.789254 7.952640 -4.577488 2.653336 nan nan nan -4.914138 -1.196794 1.655161 6.176100 -6.296358 9.917032 -0.671514 -1.586103 -4.001659 1.637888 -12.478615 7.868899 3.634058 -12.468816 11.414148 -18.530288 -7.410285 4.759095 -61.342169 -36.358351 27.183173 163.188519 -66.036030 -123.549963 7.360185 -17.428138 3.476424 23.765478 2.691847 -2.045576 49.796526 16.351842 1.070076 -137.299077 49.314846 -111.112015 -6.058301 11.224004 -3.421468 
-54.522999 140.075546 91.434669 -140.675243 5.927732 90.855702 9.908264 6.754760 -0.987474 -2.643048 7.235751 13.558019 3.218548 12.204490 -24.723913 nan nan nan -13.937465 -10.823757 -19.293133 2.483980 -15.124439 12.045298 8.040518 -4.229429 2.353987 nan nan nan -5.196997 -1.063784 1.895322 6.289722 -6.202588 9.900279 -0.444591 -1.529972 -4.072576 1.668761 -11.796409 7.713681 4.040368 -12.528746 10.308620 -18.208467 -7.515204 4.712916 -62.054034 -36.525241 27.496140 163.410425 -66.272196 -123.666812 5.931410 -17.940789 4.000385 23.862600 2.737541 -1.832736 49.492753 16.302481 0.516145 -137.110197 48.900645 -111.254880 -4.300814 11.680822 -3.192680 
-54.610500 140.051971 91.411781 -140.618300 5.827950 90.579923 9.738396 6.465042 -0.520579 -2.644904 7.014562 13.415314 3.228302 12.246154 -24.501804 nan nan nan -14.236360 -10.854004 -18.966679 2.620833 -15.177219 12.159966 8.035436 -4.172712 2.236741 nan nan nan -5.516302 -0.889372 2.374405 6.604293 -6.290910 9.225506 -0.208254 -1.487570 -3.560806 1.436620 -12.646343 7.820570 4.681643 -12.758440 10.366309 -17.594380 -7.637109 4.797134 -63.703669 -37.426556 28.332335 157.005372 -65.576814 -122.683746 3.126224 -18.073388 -4.112923 23.712256 2.719677 -2.210486 49.358782 16.299042 0.490775 -137.174700 48.466251 -113.046405 -1.687501 10.996254 -4.273633 
-54.804821 140.092529 91.486656 -140.628027 5.875764 90.147326 9.678924 6.414137 0.300054 -2.464097 7.109270 13.001981 2.922408 11.659579 -24.209217 nan nan nan -14.455540 -11.179140 -18.511261 2.450134 -15.636377 12.988746 8.637202 -3.139155 1.524118 nan nan nan -7.332448 0.588929 2.134929 7.001503 -5.388450 9.874066 1.151804 -0.623539 -3.258483 4.915661 -12.557668 8.158790 7.263271 -16.337908 9.776435 -15.963583 -10.059697 4.541721 -69.860303 -38.224989 31.676098 152.600052 -66.522007 -121.619719 -4.405358 -22.618591 -7.527716 22.229041 3.848539 -1.033315 49.594259 12.725374 -3.300206 -136.709334 44.802255 -115.721168 3.549583 12.899922 -3.532801 
-54.874557 140.090424 91.549263 -140.740477 5.979255 89.867103 9.775016 6.218655 1.050115 -2.197793 8.269275 12.483786 2.447619 10.582644 -24.083973 nan nan nan -14.436126 -10.839146 -18.072077 2.449207 -15.790751 12.975340 8.887307 -3.083745 1.404965 nan nan nan -7.132501 0.288342 3.379494 7.622151 -5.189717 7.804800 1.136416 -1.218897 2.405536 7.110447 -22.590257 10.647374 9.860626 -26.842831 4.111503 -15.395092 -6.196847 -2.451883 -73.674628 -37.035941 36.299437 155.035050 -66.551338 -124.492402 -5.031232 -23.268717 -7.334068 21.287013 3.190115 -8.489939 51.146958 12.083507 1.063169 -137.975511 44.808482 -117.082326 3.954833 12.477874 -4.201108 
-54.848179 140.119186 91.498070 -140.740157 5.941727 89.960718 9.718028 6.430004 0.868847 -2.293005 7.622255 12.572900 2.713300 11.176911 -24.112929 nan nan nan -14.480746 -11.027667 -18.554253 2.391787 -15.702881 13.690065 8.672427 -2.991264 1.021747 nan nan nan -7.244093 0.317140 2.699507 7.261617 -5.273006 8.372306 1.368710 -0.851058 -0.197484 5.930903 -16.905541 9.931660 7.774254 -20.913867 6.593358 -15.298547 -8.874653 1.227768 -71.698082 -37.300676 33.334600 153.789255 -66.599381 -122.660389 -4.820571 -22.959804 -7.822719 21.162676 4.043948 -4.381603 50.797128 12.071954 -1.581286 -137.821684 44.660499 -116.786769 4.141827 12.707868 -4.280465 
-54.829880 140.182648 91.473312 -140.733859 5.704915 89.970771 9.454574 6.464438 0.779187 -2.431607 6.981494 12.690184 2.980110 11.730695 -24.074306 nan nan nan -14.804377 -11.351730 -18.912262 2.454682 -15.537138 14.324112 8.594958 -2.864669 0.634342 nan nan nan -7.549630 0.405375 2.574959 7.066026 -5.305283 8.826492 1.369882 -0.515605 -2.348402 5.187359 -14.028776 8.992723 7.779955 -17.586717 9.512750 -15.423885 -10.202574 4.233753 -70.667777 -38.001789 31.719376 153.168310 -66.907941 -121.716893 -4.798238 -22.912905 -8.291889 21.686355 4.016616 -1.455582 50.280108 12.391514 -3.666630 -138.018367 44.703460 -117.293143 4.690580 12.824815 -3.389873 
